REM GoldWave
FILE "Зазнобин В.М. Беседа о Пушкине в телепередаче _Источник вдохновения_ (7 апреля 2004 г.).m4a" BINARY
  TRACK 01 AUDIO
    TITLE "00:00:00.00000"
    PERFORMER "Владимир Михайлович Зазнобин. Видеоархив"
    INDEX 01 00:00:00
  TRACK 02 AUDIO
    TITLE "00:00:18.54617"
    PERFORMER "Владимир Михайлович Зазнобин. Видеоархив"
    INDEX 01 00:18:41
  TRACK 03 AUDIO
    TITLE "00:00:32.11628"
    PERFORMER "Владимир Михайлович Зазнобин. Видеоархив"
    INDEX 01 00:32:09
  TRACK 04 AUDIO
    TITLE "00:00:44.95220"
    PERFORMER "Владимир Михайлович Зазнобин. Видеоархив"
    INDEX 01 00:44:71
  TRACK 05 AUDIO
    TITLE "00:00:59.62807"
    PERFORMER "Владимир Михайлович Зазнобин. Видеоархив"
    INDEX 01 00:59:47
  TRACK 06 AUDIO
    TITLE "00:01:14.35735"
    PERFORMER "Владимир Михайлович Зазнобин. Видеоархив"
    INDEX 01 01:14:27
  TRACK 07 AUDIO
    TITLE "00:01:28.81170"
    PERFORMER "Владимир Михайлович Зазнобин. Видеоархив"
    INDEX 01 01:28:61
  TRACK 08 AUDIO
    TITLE "00:01:43.11372"
    PERFORMER "Владимир Михайлович Зазнобин. Видеоархив"
    INDEX 01 01:43:09
  TRACK 09 AUDIO
    TITLE "00:01:57.25460"
    PERFORMER "Владимир Михайлович Зазнобин. Видеоархив"
    INDEX 01 01:57:19
  TRACK 10 AUDIO
    TITLE "00:02:10.62320"
    PERFORMER "Владимир Михайлович Зазнобин. Видеоархив"
    INDEX 01 02:10:47
  TRACK 11 AUDIO
    TITLE "00:02:24.56485"
    PERFORMER "Владимир Михайлович Зазнобин. Видеоархив"
    INDEX 01 02:24:42
  TRACK 12 AUDIO
    TITLE "00:02:43.29444"
    PERFORMER "Владимир Михайлович Зазнобин. Видеоархив"
    INDEX 01 02:43:22
  TRACK 13 AUDIO
    TITLE "00:02:58.58703"
    PERFORMER "Владимир Михайлович Зазнобин. Видеоархив"
    INDEX 01 02:58:44
  TRACK 14 AUDIO
    TITLE "00:03:11.73272"
    PERFORMER "Владимир Михайлович Зазнобин. Видеоархив"
    INDEX 01 03:11:55
  TRACK 15 AUDIO
    TITLE "00:03:25.69850"
    PERFORMER "Владимир Михайлович Зазнобин. Видеоархив"
    INDEX 01 03:25:52
  TRACK 16 AUDIO
    TITLE "00:03:39.07639"
    PERFORMER "Владимир Михайлович Зазнобин. Видеоархив"
    INDEX 01 03:39:06
  TRACK 17 AUDIO
    TITLE "00:03:54.20782"
    PERFORMER "Владимир Михайлович Зазнобин. Видеоархив"
    INDEX 01 03:54:16
  TRACK 18 AUDIO
    TITLE "00:04:10.09531"
    PERFORMER "Владимир Михайлович Зазнобин. Видеоархив"
    INDEX 01 04:10:07
  TRACK 19 AUDIO
    TITLE "00:04:24.21159"
    PERFORMER "Владимир Михайлович Зазнобин. Видеоархив"
    INDEX 01 04:24:16
  TRACK 20 AUDIO
    TITLE "00:04:37.21794"
    PERFORMER "Владимир Михайлович Зазнобин. Видеоархив"
    INDEX 01 04:37:16
  TRACK 21 AUDIO
    TITLE "00:04:50.17320"
    PERFORMER "Владимир Михайлович Зазнобин. Видеоархив"
    INDEX 01 04:50:13
  TRACK 22 AUDIO
    TITLE "00:05:03.62864"
    PERFORMER "Владимир Михайлович Зазнобин. Видеоархив"
    INDEX 01 05:03:47
  TRACK 23 AUDIO
    TITLE "00:05:16.80914"
    PERFORMER "Владимир Михайлович Зазнобин. Видеоархив"
    INDEX 01 05:16:61
  TRACK 24 AUDIO
    TITLE "00:05:30.08762"
    PERFORMER "Владимир Михайлович Зазнобин. Видеоархив"
    INDEX 01 05:30:07
  TRACK 25 AUDIO
    TITLE "00:05:43.39676"
    PERFORMER "Владимир Михайлович Зазнобин. Видеоархив"
    INDEX 01 05:43:30
  TRACK 26 AUDIO
    TITLE "00:05:58.03918"
    PERFORMER "Владимир Михайлович Зазнобин. Видеоархив"
    INDEX 01 05:58:03
  TRACK 27 AUDIO
    TITLE "00:06:13.03875"
    PERFORMER "Владимир Михайлович Зазнобин. Видеоархив"
    INDEX 01 06:13:03
  TRACK 28 AUDIO
    TITLE "00:06:26.18118"
    PERFORMER "Владимир Михайлович Зазнобин. Видеоархив"
    INDEX 01 06:26:14
  TRACK 29 AUDIO
    TITLE "00:06:45.36404"
    PERFORMER "Владимир Михайлович Зазнобин. Видеоархив"
    INDEX 01 06:45:27
  TRACK 30 AUDIO
    TITLE "00:06:58.93880"
    PERFORMER "Владимир Михайлович Зазнобин. Видеоархив"
    INDEX 01 06:58:70
  TRACK 31 AUDIO
    TITLE "00:07:12.93805"
    PERFORMER "Владимир Михайлович Зазнобин. Видеоархив"
    INDEX 01 07:12:70
  TRACK 32 AUDIO
    TITLE "00:07:26.00569"
    PERFORMER "Владимир Михайлович Зазнобин. Видеоархив"
    INDEX 01 07:26:00
  TRACK 33 AUDIO
    TITLE "00:07:42.25170"
    PERFORMER "Владимир Михайлович Зазнобин. Видеоархив"
    INDEX 01 07:42:19
  TRACK 34 AUDIO
    TITLE "00:07:56.08980"
    PERFORMER "Владимир Михайлович Зазнобин. Видеоархив"
    INDEX 01 07:56:07
  TRACK 35 AUDIO
    TITLE "00:08:09.19506"
    PERFORMER "Владимир Михайлович Зазнобин. Видеоархив"
    INDEX 01 08:09:15
  TRACK 36 AUDIO
    TITLE "00:08:22.91333"
    PERFORMER "Владимир Михайлович Зазнобин. Видеоархив"
    INDEX 01 08:22:69
  TRACK 37 AUDIO
    TITLE "00:08:35.87975"
    PERFORMER "Владимир Михайлович Зазнобин. Видеоархив"
    INDEX 01 08:35:66
  TRACK 38 AUDIO
    TITLE "00:08:51.61492"
    PERFORMER "Владимир Михайлович Зазнобин. Видеоархив"
    INDEX 01 08:51:46
  TRACK 39 AUDIO
    TITLE "00:09:06.43660"
    PERFORMER "Владимир Михайлович Зазнобин. Видеоархив"
    INDEX 01 09:06:33
  TRACK 40 AUDIO
    TITLE "00:09:21.37578"
    PERFORMER "Владимир Михайлович Зазнобин. Видеоархив"
    INDEX 01 09:21:28
  TRACK 41 AUDIO
    TITLE "00:09:35.39268"
    PERFORMER "Владимир Михайлович Зазнобин. Видеоархив"
    INDEX 01 09:35:29
  TRACK 42 AUDIO
    TITLE "00:09:48.50259"
    PERFORMER "Владимир Михайлович Зазнобин. Видеоархив"
    INDEX 01 09:48:38
  TRACK 43 AUDIO
    TITLE "00:10:05.52971"
    PERFORMER "Владимир Михайлович Зазнобин. Видеоархив"
    INDEX 01 10:05:40
  TRACK 44 AUDIO
    TITLE "00:10:19.82941"
    PERFORMER "Владимир Михайлович Зазнобин. Видеоархив"
    INDEX 01 10:19:62
  TRACK 45 AUDIO
    TITLE "00:10:36.69864"
    PERFORMER "Владимир Михайлович Зазнобин. Видеоархив"
    INDEX 01 10:36:52
  TRACK 46 AUDIO
    TITLE "00:10:51.05406"
    PERFORMER "Владимир Михайлович Зазнобин. Видеоархив"
    INDEX 01 10:51:04
  TRACK 47 AUDIO
    TITLE "00:11:05.67002"
    PERFORMER "Владимир Михайлович Зазнобин. Видеоархив"
    INDEX 01 11:05:50
  TRACK 48 AUDIO
    TITLE "00:11:18.67823"
    PERFORMER "Владимир Михайлович Зазнобин. Видеоархив"
    INDEX 01 11:18:51
  TRACK 49 AUDIO
    TITLE "00:11:32.38351"
    PERFORMER "Владимир Михайлович Зазнобин. Видеоархив"
    INDEX 01 11:32:29
  TRACK 50 AUDIO
    TITLE "00:11:46.17238"
    PERFORMER "Владимир Михайлович Зазнобин. Видеоархив"
    INDEX 01 11:46:13
  TRACK 51 AUDIO
    TITLE "00:11:59.17408"
    PERFORMER "Владимир Михайлович Зазнобин. Видеоархив"
    INDEX 01 11:59:13
  TRACK 52 AUDIO
    TITLE "00:12:13.39066"
    PERFORMER "Владимир Михайлович Зазнобин. Видеоархив"
    INDEX 01 12:13:29
  TRACK 53 AUDIO
    TITLE "00:12:27.95508"
    PERFORMER "Владимир Михайлович Зазнобин. Видеоархив"
    INDEX 01 12:27:72
  TRACK 54 AUDIO
    TITLE "00:12:42.78141"
    PERFORMER "Владимир Михайлович Зазнобин. Видеоархив"
    INDEX 01 12:42:59
  TRACK 55 AUDIO
    TITLE "00:12:55.61501"
    PERFORMER "Владимир Михайлович Зазнобин. Видеоархив"
    INDEX 01 12:55:46
  TRACK 56 AUDIO
    TITLE "00:13:10.43483"
    PERFORMER "Владимир Михайлович Зазнобин. Видеоархив"
    INDEX 01 13:10:33
  TRACK 57 AUDIO
    TITLE "00:13:24.21488"
    PERFORMER "Владимир Михайлович Зазнобин. Видеоархив"
    INDEX 01 13:24:16
  TRACK 58 AUDIO
    TITLE "00:13:40.28395"
    PERFORMER "Владимир Михайлович Зазнобин. Видеоархив"
    INDEX 01 13:40:21
  TRACK 59 AUDIO
    TITLE "00:13:53.28565"
    PERFORMER "Владимир Михайлович Зазнобин. Видеоархив"
    INDEX 01 13:53:21
  TRACK 60 AUDIO
    TITLE "00:14:06.14803"
    PERFORMER "Владимир Михайлович Зазнобин. Видеоархив"
    INDEX 01 14:06:11
  TRACK 61 AUDIO
    TITLE "00:14:19.58583"
    PERFORMER "Владимир Михайлович Зазнобин. Видеоархив"
    INDEX 01 14:19:44
  TRACK 62 AUDIO
    TITLE "00:14:33.15780"
    PERFORMER "Владимир Михайлович Зазнобин. Видеоархив"
    INDEX 01 14:33:12
  TRACK 63 AUDIO
    TITLE "00:14:46.37871"
    PERFORMER "Владимир Михайлович Зазнобин. Видеоархив"
    INDEX 01 14:46:28
  TRACK 64 AUDIO
    TITLE "00:15:00.42020"
    PERFORMER "Владимир Михайлович Зазнобин. Видеоархив"
    INDEX 01 15:00:32
  TRACK 65 AUDIO
    TITLE "00:15:15.23726"
    PERFORMER "Владимир Михайлович Зазнобин. Видеоархив"
    INDEX 01 15:15:18
  TRACK 66 AUDIO
    TITLE "00:15:28.95553"
    PERFORMER "Владимир Михайлович Зазнобин. Видеоархив"
    INDEX 01 15:28:72
  TRACK 67 AUDIO
    TITLE "00:15:42.08542"
    PERFORMER "Владимир Михайлович Зазнобин. Видеоархив"
    INDEX 01 15:42:06
  TRACK 68 AUDIO
    TITLE "00:15:55.00306"
    PERFORMER "Владимир Михайлович Зазнобин. Видеоархив"
    INDEX 01 15:55:00
  TRACK 69 AUDIO
    TITLE "00:16:09.26331"
    PERFORMER "Владимир Михайлович Зазнобин. Видеоархив"
    INDEX 01 16:09:20
  TRACK 70 AUDIO
    TITLE "00:16:22.54596"
    PERFORMER "Владимир Михайлович Зазнобин. Видеоархив"
    INDEX 01 16:22:41
  TRACK 71 AUDIO
    TITLE "00:16:38.10884"
    PERFORMER "Владимир Михайлович Зазнобин. Видеоархив"
    INDEX 01 16:38:08
  TRACK 72 AUDIO
    TITLE "00:16:51.60327"
    PERFORMER "Владимир Михайлович Зазнобин. Видеоархив"
    INDEX 01 16:51:45
  TRACK 73 AUDIO
    TITLE "00:17:06.29912"
    PERFORMER "Владимир Михайлович Зазнобин. Видеоархив"
    INDEX 01 17:06:22
  TRACK 74 AUDIO
    TITLE "00:17:20.34526"
    PERFORMER "Владимир Михайлович Зазнобин. Видеоархив"
    INDEX 01 17:20:26
  TRACK 75 AUDIO
    TITLE "00:17:33.45469"
    PERFORMER "Владимир Михайлович Зазнобин. Видеоархив"
    INDEX 01 17:33:34
  TRACK 76 AUDIO
    TITLE "00:17:46.62916"
    PERFORMER "Владимир Михайлович Зазнобин. Видеоархив"
    INDEX 01 17:46:47
  TRACK 77 AUDIO
    TITLE "00:18:01.40952"
    PERFORMER "Владимир Михайлович Зазнобин. Видеоархив"
    INDEX 01 18:01:31
  TRACK 78 AUDIO
    TITLE "00:18:14.75118"
    PERFORMER "Владимир Михайлович Зазнобин. Видеоархив"
    INDEX 01 18:14:56
  TRACK 79 AUDIO
    TITLE "00:18:27.78168"
    PERFORMER "Владимир Михайлович Зазнобин. Видеоархив"
    INDEX 01 18:27:59
  TRACK 80 AUDIO
    TITLE "00:18:44.47490"
    PERFORMER "Владимир Михайлович Зазнобин. Видеоархив"
    INDEX 01 18:44:36
  TRACK 81 AUDIO
    TITLE "00:18:59.29426"
    PERFORMER "Владимир Михайлович Зазнобин. Видеоархив"
    INDEX 01 18:59:22
  TRACK 82 AUDIO
    TITLE "00:19:14.60542"
    PERFORMER "Владимир Михайлович Зазнобин. Видеоархив"
    INDEX 01 19:14:45
  TRACK 83 AUDIO
    TITLE "00:19:28.94460"
    PERFORMER "Владимир Михайлович Зазнобин. Видеоархив"
    INDEX 01 19:28:71
  TRACK 84 AUDIO
    TITLE "00:19:44.33286"
    PERFORMER "Владимир Михайлович Зазнобин. Видеоархив"
    INDEX 01 19:44:25
  TRACK 85 AUDIO
    TITLE "00:19:57.90206"
    PERFORMER "Владимир Михайлович Зазнобин. Видеоархив"
    INDEX 01 19:57:68
  TRACK 86 AUDIO
    TITLE "00:20:13.54946"
    PERFORMER "Владимир Михайлович Зазнобин. Видеоархив"
    INDEX 01 20:13:41
  TRACK 87 AUDIO
    TITLE "00:20:26.78707"
    PERFORMER "Владимир Михайлович Зазнобин. Видеоархив"
    INDEX 01 20:26:59
  TRACK 88 AUDIO
    TITLE "00:20:40.49887"
    PERFORMER "Владимир Михайлович Зазнобин. Видеоархив"
    INDEX 01 20:40:37
  TRACK 89 AUDIO
    TITLE "00:20:58.50354"
    PERFORMER "Владимир Михайлович Зазнобин. Видеоархив"
    INDEX 01 20:58:38
  TRACK 90 AUDIO
    TITLE "00:21:12.08388"
    PERFORMER "Владимир Михайлович Зазнобин. Видеоархив"
    INDEX 01 21:12:06
  TRACK 91 AUDIO
    TITLE "00:21:25.45526"
    PERFORMER "Владимир Михайлович Зазнобин. Видеоархив"
    INDEX 01 21:25:34
  TRACK 92 AUDIO
    TITLE "00:21:39.18005"
    PERFORMER "Владимир Михайлович Зазнобин. Видеоархив"
    INDEX 01 21:39:14
  TRACK 93 AUDIO
    TITLE "00:21:54.59290"
    PERFORMER "Владимир Михайлович Зазнобин. Видеоархив"
    INDEX 01 21:54:44
  TRACK 94 AUDIO
    TITLE "00:22:08.95438"
    PERFORMER "Владимир Михайлович Зазнобин. Видеоархив"
    INDEX 01 22:08:72
  TRACK 95 AUDIO
    TITLE "00:22:22.96243"
    PERFORMER "Владимир Михайлович Зазнобин. Видеоархив"
    INDEX 01 22:22:72
  TRACK 96 AUDIO
    TITLE "00:22:35.99898"
    PERFORMER "Владимир Михайлович Зазнобин. Видеоархив"
    INDEX 01 22:36:00
  TRACK 97 AUDIO
    TITLE "00:22:50.36136"
    PERFORMER "Владимир Михайлович Зазнобин. Видеоархив"
    INDEX 01 22:50:27
  TRACK 98 AUDIO
    TITLE "00:23:04.61000"
    PERFORMER "Владимир Михайлович Зазнобин. Видеоархив"
    INDEX 01 23:04:46
  TRACK 99 AUDIO
    TITLE "00:23:20.99764"
    PERFORMER "Владимир Михайлович Зазнобин. Видеоархив"
    INDEX 01 23:21:00
  TRACK 100 AUDIO
    TITLE "00:23:34.86871"
    PERFORMER "Владимир Михайлович Зазнобин. Видеоархив"
    INDEX 01 23:34:65
  TRACK 101 AUDIO
    TITLE "00:23:48.55585"
    PERFORMER "Владимир Михайлович Зазнобин. Видеоархив"
    INDEX 01 23:48:42
  TRACK 102 AUDIO
    TITLE "00:24:01.54177"
    PERFORMER "Владимир Михайлович Зазнобин. Видеоархив"
    INDEX 01 24:01:41
  TRACK 103 AUDIO
    TITLE "00:24:16.54551"
    PERFORMER "Владимир Михайлович Зазнобин. Видеоархив"
    INDEX 01 24:16:41
  TRACK 104 AUDIO
    TITLE "00:24:30.04227"
    PERFORMER "Владимир Михайлович Зазнобин. Видеоархив"
    INDEX 01 24:30:03
  TRACK 105 AUDIO
    TITLE "00:24:44.30714"
    PERFORMER "Владимир Михайлович Зазнобин. Видеоархив"
    INDEX 01 24:44:23
  TRACK 106 AUDIO
    TITLE "00:24:57.91676"
    PERFORMER "Владимир Михайлович Зазнобин. Видеоархив"
    INDEX 01 24:57:69
  TRACK 107 AUDIO
    TITLE "00:25:12.97993"
    PERFORMER "Владимир Михайлович Зазнобин. Видеоархив"
    INDEX 01 25:12:73
  TRACK 108 AUDIO
    TITLE "00:25:27.45610"
    PERFORMER "Владимир Михайлович Зазнобин. Видеоархив"
    INDEX 01 25:27:34
  TRACK 109 AUDIO
    TITLE "00:25:41.76045"
    PERFORMER "Владимир Михайлович Зазнобин. Видеоархив"
    INDEX 01 25:41:57
  TRACK 110 AUDIO
    TITLE "00:25:55.53447"
    PERFORMER "Владимир Михайлович Зазнобин. Видеоархив"
    INDEX 01 25:55:40
  TRACK 111 AUDIO
    TITLE "00:26:08.69499"
    PERFORMER "Владимир Михайлович Зазнобин. Видеоархив"
    INDEX 01 26:08:52
  TRACK 112 AUDIO
    TITLE "00:26:22.45553"
    PERFORMER "Владимир Михайлович Зазнобин. Видеоархив"
    INDEX 01 26:22:34
  TRACK 113 AUDIO
    TITLE "00:26:36.61871"
    PERFORMER "Владимир Михайлович Зазнобин. Видеоархив"
    INDEX 01 26:36:46
  TRACK 114 AUDIO
    TITLE "00:26:51.50494"
    PERFORMER "Владимир Михайлович Зазнобин. Видеоархив"
    INDEX 01 26:51:38
  TRACK 115 AUDIO
    TITLE "00:27:04.98127"
    PERFORMER "Владимир Михайлович Зазнобин. Видеоархив"
    INDEX 01 27:04:74
  TRACK 116 AUDIO
    TITLE "00:27:18.51610"
    PERFORMER "Владимир Михайлович Зазнобин. Видеоархив"
    INDEX 01 27:18:39
  TRACK 117 AUDIO
    TITLE "00:27:31.64367"
    PERFORMER "Владимир Михайлович Зазнобин. Видеоархив"
    INDEX 01 27:31:48
  TRACK 118 AUDIO
    TITLE "00:27:44.77170"
    PERFORMER "Владимир Михайлович Зазнобин. Видеоархив"
    INDEX 01 27:44:58
  TRACK 119 AUDIO
    TITLE "00:27:58.26426"
    PERFORMER "Владимир Михайлович Зазнобин. Видеоархив"
    INDEX 01 27:58:20
  TRACK 120 AUDIO
    TITLE "00:28:11.93844"
    PERFORMER "Владимир Михайлович Зазнобин. Видеоархив"
    INDEX 01 28:11:70
  TRACK 121 AUDIO
    TITLE "00:28:25.77651"
    PERFORMER "Владимир Михайлович Зазнобин. Видеоархив"
    INDEX 01 28:25:58
  TRACK 122 AUDIO
    TITLE "00:28:39.43490"
    PERFORMER "Владимир Михайлович Зазнобин. Видеоархив"
    INDEX 01 28:39:33
  TRACK 123 AUDIO
    TITLE "00:28:56.62270"
    PERFORMER "Владимир Михайлович Зазнобин. Видеоархив"
    INDEX 01 28:56:47
